<svg width="192" height="192" viewBox="0 0 192 192" fill="none" xmlns="http://www.w3.org/2000/svg">
<circle cx="96" cy="96" r="90" fill="#FFD700" stroke="#DAA520" stroke-width="6"/>
<path d="M96 56L104.727 84.2736L134.727 87.7264L112.364 109.726L118.18 139.727L96 124L73.8203 139.727L79.6364 109.726L57.2729 87.7264L87.2729 84.2736L96 56Z" fill="#DAA520"/>
<path d="M96 80C106.493 80 115 88.5066 115 99C115 109.493 106.493 118 96 118C85.5066 118 77 109.493 77 99C77 88.5066 85.5066 80 96 80Z" fill="#FFEC8B"/>
<path d="M96 90C101.523 90 106 94.4772 106 100C106 105.523 101.523 110 96 110C90.4772 110 86 105.523 86 100C86 94.4772 90.4772 90 96 90Z" fill="#DAA520"/>
<path d="M96 99C96 99.5523 95.5523 100 95 100C94.4477 100 94 99.5523 94 99C94 98.4477 94.4477 98 95 98C95.5523 98 96 98.4477 96 99Z" fill="#FFD700"/>
<path d="M96 99C96 99.5523 96.4477 100 97 100C97.5523 100 98 99.5523 98 99C98 98.4477 97.5523 98 97 98C96.4477 98 96 98.4477 96 99Z" fill="#FFD700"/>
<path d="M96 99C96 99.5523 95.5523 100 95 100C94.4477 100 94 99.5523 94 99C94 98.4477 94.4477 98 95 98C95.5523 98 96 98.4477 96 99Z" fill="#FFD700"/>
<path d="M96 99C96 99.5523 96.4477 100 97 100C97.5523 100 98 99.5523 98 99C98 98.4477 97.5523 98 97 98C96.4477 98 96 98.4477 96 99Z" fill="#FFD700"/>
</svg>